<svg width="224" height="60" viewBox="0 0 224 64" fill="none" xmlns="http://www.w3.org/2000/svg">
<rect width="224" height="64" fill="#D6D6D6"/>
<g id="Home">
<path d="M-20875 -945C-20875 -1044.41 -20794.4 -1125 -20695 -1125H6249C6348.41 -1125 6429 -1044.41 6429 -945V4997C6429 5096.41 6348.41 5177 6249 5177H-20695C-20794.4 5177 -20875 5096.41 -20875 4997V-945Z" fill="#DFDFDF"/>
<g id="Blog" clip-path="url(#clip0_626_7414)">
<rect width="1440" height="2617" transform="translate(-416 -800)" fill="#FEFEFE"/>
<g id="Frame 1000005285">
<line id="Line 352" x1="201.643" y1="-143" x2="201.643" y2="3450" stroke="#F0F0F0" stroke-dasharray="42 42"/>
</g>
<g id="Frame 1000005318">
<g id="div">
<g id="div_2">
<g id="cisco.svg">
<g id="cisco.svg_2">
<path id="Vector" fill-rule="evenodd" clip-rule="evenodd" d="M97.7555 49.0942V37.0092H100.964V49.0942H97.7555ZM112.37 39.9364C112.324 39.9231 111.013 39.5716 109.936 39.5716C108.688 39.5716 108.01 39.9769 108.01 40.5518C108.01 41.2809 108.926 41.5356 109.438 41.6929L110.296 41.9583C112.317 42.5818 113.237 43.9243 113.237 45.3825C113.237 48.3896 110.513 49.401 108.13 49.401C106.474 49.401 104.923 49.1044 104.77 49.0736V46.3176C105.045 46.3847 106.349 46.7628 107.71 46.7628C109.259 46.7628 109.971 46.3237 109.971 45.6458C109.971 45.0387 109.354 44.6882 108.582 44.454C108.395 44.3915 108.111 44.3049 107.917 44.245C106.184 43.7126 104.738 42.7227 104.738 40.7424C104.738 38.5028 106.466 37 109.336 37C110.852 37 112.277 37.3571 112.369 37.3807V39.9359L112.37 39.9364ZM141.978 43.1997C141.978 46.6255 139.254 49.4 135.46 49.4C131.665 49.4 128.944 46.6255 128.944 43.1987C128.944 39.7802 131.666 37.0026 135.46 37.0026C139.254 37.0026 141.978 39.7801 141.978 43.1997ZM135.46 40.0517C133.613 40.0517 132.241 41.4623 132.241 43.1997C132.241 44.9423 133.613 46.3504 135.46 46.3504C137.304 46.3504 138.68 44.9423 138.68 43.1997C138.68 41.4623 137.304 40.0517 135.46 40.0517ZM93.1715 40.6461C93.0462 40.5825 92.0458 40.0076 90.5561 40.0076C88.5406 40.0076 87.1445 41.3665 87.1445 43.2003C87.1445 44.9792 88.4824 46.3954 90.5576 46.3954C92.0203 46.3954 93.0379 45.8313 93.1715 45.7606V48.9737C92.7852 49.0798 91.7224 49.4 90.3319 49.4C86.8346 49.4 83.7637 47.0574 83.7637 43.1987C83.7637 39.6254 86.544 37.0026 90.333 37.0026C91.7977 37.0026 92.8788 37.3469 93.1715 37.4319V40.6461ZM125.666 40.6461C125.539 40.5825 124.536 40.0076 123.049 40.0076C121.034 40.0076 119.639 41.3665 119.639 43.2003C119.639 44.9792 120.974 46.3954 123.048 46.3954C124.511 46.3954 125.529 45.8313 125.666 45.7606V48.9737C125.276 49.0798 124.211 49.4 122.83 49.4C119.328 49.4 116.254 47.0574 116.254 43.1987C116.254 39.6254 119.035 37.0026 122.83 37.0026C124.289 37.0026 125.372 37.3469 125.666 37.4319V40.6461Z" fill="#1F2225"/>
<path id="Vector_2" fill-rule="evenodd" clip-rule="evenodd" d="M148 20.6714C147.998 19.8429 147.307 19.1722 146.458 19.1732C145.607 19.1722 144.917 19.8429 144.915 20.6719V23.8143C144.901 24.359 145.192 24.8683 145.675 25.1439C146.158 25.4206 146.756 25.4206 147.24 25.1439C147.723 24.8672 148.013 24.3579 147.999 23.8143V20.6714H148ZM139.522 16.5473C139.522 15.7218 138.834 15.0496 137.962 15.0496C137.113 15.0481 136.424 15.7177 136.422 16.5452V16.5463V23.8148C136.422 24.6423 137.11 25.313 137.959 25.313H137.962C138.833 25.313 139.522 24.6433 139.522 23.8138V16.5447V16.5468V16.5473ZM131.029 10.9035C131.028 10.0755 130.338 9.40523 129.489 9.40625H129.488C128.639 9.40471 127.949 10.0744 127.947 10.9024V10.9029V26.7999C127.921 27.3512 128.209 27.8723 128.696 28.1541C129.184 28.4365 129.792 28.4354 130.279 28.1516C130.765 27.8703 131.053 27.3512 131.028 26.801V10.9035H131.029ZM122.533 16.5473C122.532 15.7198 121.842 15.0496 120.993 15.0506C120.144 15.0491 119.454 15.7193 119.452 16.5468V16.5473V23.8143C119.454 24.6418 120.143 25.312 120.993 25.3105C121.842 25.312 122.532 24.6418 122.533 23.8143V16.5452V16.5473ZM114.04 20.6714C114.038 19.8454 113.35 19.1773 112.503 19.1783C111.655 19.1763 110.965 19.8434 110.959 20.6704V23.8148C110.96 24.6423 111.65 25.3125 112.499 25.311C113.349 25.313 114.039 24.6428 114.04 23.8153V23.8148V20.6719V20.6714ZM105.561 16.5473C105.559 15.7162 104.867 15.0445 104.015 15.0455C103.163 15.0445 102.47 15.7162 102.469 16.5473V23.8143C102.47 24.6444 103.162 25.3161 104.014 25.3151H104.015C104.866 25.3166 105.558 24.6449 105.56 23.8148V23.8143V16.5452V16.5473H105.561ZM97.0704 10.9035C97.0704 10.0785 96.3762 9.4083 95.525 9.4083C94.6728 9.4083 93.9786 10.077 93.9786 10.9035V26.7999C93.9802 27.6305 94.6723 28.3027 95.5245 28.3012C96.3767 28.3027 97.0688 27.6305 97.0704 26.7999V10.9035ZM88.5813 16.5473C88.5798 15.7162 87.8877 15.0445 87.0349 15.0455C86.1827 15.0445 85.4906 15.7162 85.4891 16.5473V23.8143C85.4906 24.6444 86.1822 25.3161 87.0339 25.3151H87.0344C87.8866 25.3166 88.5782 24.6449 88.5803 23.8148V23.8143V16.5452V16.5473H88.5813ZM80.0912 20.6719C80.0912 19.8475 79.3971 19.1778 78.5459 19.1778C77.6947 19.1778 77 19.8475 77 20.6709V23.8138C77.0016 24.6444 77.6936 25.3166 78.5459 25.3151C79.3976 25.3166 80.0902 24.6449 80.0917 23.8143V20.6714L80.0912 20.6719Z" fill="#1F2225"/>
</g>
</g>
</g>
</g>
</g>
</g>
<path d="M-20695 -1124H6249V-1126H-20695V-1124ZM6428 -945V4997H6430V-945H6428ZM6249 5176H-20695V5178H6249V5176ZM-20874 4997V-945H-20876V4997H-20874ZM-20695 5176C-20793.9 5176 -20874 5095.86 -20874 4997H-20876C-20876 5096.96 -20795 5178 -20695 5178V5176ZM6428 4997C6428 5095.86 6347.86 5176 6249 5176V5178C6348.96 5178 6430 5096.96 6430 4997H6428ZM6249 -1124C6347.86 -1124 6428 -1043.86 6428 -945H6430C6430 -1044.96 6348.96 -1126 6249 -1126V-1124ZM-20695 -1126C-20795 -1126 -20876 -1044.96 -20876 -945H-20874C-20874 -1043.86 -20793.9 -1124 -20695 -1124V-1126Z" fill="black" fill-opacity="0.1"/>
</g>
<defs>
<clipPath id="clip0_626_7414">
<rect width="1440" height="2617" fill="white" transform="translate(-416 -800)"/>
</clipPath>
</defs>
</svg>
