<svg width="54" height="20" viewBox="0 0 54 64" fill="none" xmlns="http://www.w3.org/2000/svg">
<rect width="54" height="64" fill="#D6D6D6"/>
<g id="Home">
<path d="M-21163 -945C-21163 -1044.41 -21082.4 -1125 -20983 -1125H5961C6060.41 -1125 6141 -1044.41 6141 -945V4997C6141 5096.41 6060.41 5177 5961 5177H-20983C-21082.4 5177 -21163 5096.41 -21163 4997V-945Z" fill="#DFDFDF"/>
<g id="Blog" clip-path="url(#clip0_626_7414)">
<rect width="1440" height="2617" transform="translate(-704 -800)" fill="#FEFEFE"/>
<g id="Frame 1000005285">
</g>
<g id="Frame 1000005318">
<g id="div">
<g id="div_2">
<g id="Volvo_Index_Only.svg">
<g id="Volvo_Index_Only.svg_2" clip-path="url(#clip1_626_7414)">
<path id="Vector" d="M24.1582 36.6886H30.6306V34.5281H29.9199C29.9199 35.3545 29.3154 35.9638 28.3921 35.9638H27.3956V32.7382H28.47V32.0227H24.1582V32.7382H25.2445V35.9638H24.1582V36.6864V36.6886Z" fill="#1F2225"/>
<path id="Vector_2" d="M33.743 36.691L36.2601 36.6934L38.3971 32.7405H39.4691V32.0227H36.2459V32.7405H37.1786L35.6201 35.6166L34.0428 32.7405H35.1739V32.0227H30.4985L30.4961 32.7405H31.5681L33.743 36.691Z" fill="#1F2225"/>
<path id="Vector_3" d="M11.2715 32.0227H6.59611L6.59375 32.7405H7.66343L9.84057 36.691L12.3577 36.6934L14.4948 32.7405H15.5668V32.0227H12.3436V32.7405H13.2739L11.7178 35.6166L10.1405 32.7405H11.2715V32.0227Z" fill="#1F2225"/>
<path id="Vector_4" d="M16.1917 34.358C16.1917 35.7324 17.2992 36.8256 19.5189 36.8256C21.7385 36.8256 22.8341 35.7324 22.8341 34.358C22.8341 33.0026 21.6724 31.9211 19.5047 31.9211C17.3393 31.9211 16.1895 33.0026 16.1895 34.358H16.1917ZM20.6617 34.3698C20.6476 35.2175 20.2957 36.1007 19.4834 36.0865C18.6924 36.0723 18.3452 35.1987 18.3595 34.3297C18.376 33.4301 18.8057 32.646 19.5473 32.6579C20.2887 32.672 20.6782 33.4702 20.6641 34.3698H20.6617Z" fill="#1F2225"/>
<path id="Vector_5" d="M40.0879 34.358C40.0879 35.7324 41.1954 36.8256 43.415 36.8256C45.6347 36.8256 46.7303 35.7324 46.7303 34.358C46.7303 33.0026 45.5686 31.9211 43.4032 31.9211C41.2379 31.9211 40.0879 33.0026 40.0879 34.358ZM43.4433 32.6579C44.1824 32.672 44.5744 33.4702 44.5579 34.3698C44.5413 35.2175 44.1919 36.1007 43.3796 36.0865C42.5886 36.0723 42.2414 35.1987 42.2555 34.3297C42.2721 33.4301 42.7019 32.646 43.4433 32.6579Z" fill="#1F2225"/>
<path id="Vector_6" d="M48.6055 19.517L45.897 22.2254C48.2182 25.8076 49.5689 30.0792 49.5689 34.6672C49.5689 47.3168 39.3136 57.5721 26.6641 57.5721C14.0145 57.5721 3.75923 47.3168 3.75923 34.6672C3.75923 22.0177 14.0145 11.7624 26.6641 11.7624C31.2616 11.7624 35.5427 13.1178 39.1319 15.4508L41.8403 12.7424C37.5333 9.75527 32.3028 8.00317 26.6641 8.00317C11.9388 8.00317 0 19.9396 0 34.6672C0 49.3925 11.9365 61.3313 26.6641 61.3313C41.3893 61.3313 53.3281 49.3949 53.3281 34.6672C53.3281 29.0402 51.5831 23.8194 48.6078 19.517H48.6055Z" fill="#1F2225"/>
<path id="Vector_7" d="M40.0747 9.05396V9.8025C41.6921 10.6785 43.2128 11.7128 44.6225 12.8746L40.8231 16.6739C42.2565 17.7979 43.5505 19.0919 44.6769 20.5228L48.4714 16.7283C49.6356 18.1403 50.6699 19.6633 51.5459 21.2573H52.2756V9.05396H40.0723H40.0747Z" fill="#1F2225"/>
</g>
</g>
</g>
</g>
</g>
</g>
<path d="M-20983 -1124H5961V-1126H-20983V-1124ZM6140 -945V4997H6142V-945H6140ZM5961 5176H-20983V5178H5961V5176ZM-21162 4997V-945H-21164V4997H-21162ZM-20983 5176C-21081.9 5176 -21162 5095.86 -21162 4997H-21164C-21164 5096.96 -21083 5178 -20983 5178V5176ZM6140 4997C6140 5095.86 6059.86 5176 5961 5176V5178C6060.96 5178 6142 5096.96 6142 4997H6140ZM5961 -1124C6059.86 -1124 6140 -1043.86 6140 -945H6142C6142 -1044.96 6060.96 -1126 5961 -1126V-1124ZM-20983 -1126C-21083 -1126 -21164 -1044.96 -21164 -945H-21162C-21162 -1043.86 -21081.9 -1124 -20983 -1124V-1126Z" fill="black" fill-opacity="0.1"/>
</g>
<defs>
<clipPath id="clip0_626_7414">
<rect width="1440" height="2617" fill="white" transform="translate(-704 -800)"/>
</clipPath>
<clipPath id="clip1_626_7414">
<rect width="53.3281" height="63.9938" fill="white" transform="translate(0 0.00317383)"/>
</clipPath>
</defs>
</svg>
