<svg width="118" height="64" viewBox="0 0 118 64" fill="none" xmlns="http://www.w3.org/2000/svg">
<rect width="118" height="64" fill="#D6D6D6"/>
<g id="Home">
<path d="M-20722 -945C-20722 -1044.41 -20641.4 -1125 -20542 -1125H6402C6501.41 -1125 6582 -1044.41 6582 -945V4997C6582 5096.41 6501.41 5177 6402 5177H-20542C-20641.4 5177 -20722 5096.41 -20722 4997V-945Z" fill="#DFDFDF"/>
<g id="Blog" clip-path="url(#clip0_626_7414)">
<rect width="1440" height="2617" transform="translate(-263 -800)" fill="#FEFEFE"/>
<g id="Frame 1000005285">
</g>
<g id="Frame 1000005318">
<g id="div">
<g id="div_2">
<g id="Walmart_Index_Only.svg">
<g id="Walmart_Index_Only.svg_2">
<path id="Vector" d="M67.7269 34.9478C67.7269 32.1827 66.5434 29.7397 62.5403 29.7397C60.4866 29.7397 58.8552 30.3251 57.9706 30.8374L58.6189 33.0557C59.4333 32.5448 60.7328 32.124 61.9593 32.124C63.9859 32.1212 64.3179 33.2676 64.3179 34.0046V34.1821C59.8941 34.1749 57.0977 35.7035 57.0977 38.8163C57.0977 40.7183 58.5173 42.5016 60.999 42.5016C62.5132 42.5016 63.7926 41.8904 64.5569 40.9258H64.6313C64.6313 40.9258 65.1352 43.034 67.9216 42.2281C67.7799 41.3451 67.7269 40.4149 67.7269 39.2843V34.9478ZM64.4267 37.8674C64.4267 38.0907 64.4081 38.3226 64.3423 38.5215C64.0875 39.3731 63.2087 40.0857 62.1153 40.0857C61.1923 40.0857 60.468 39.5633 60.468 38.4684C60.468 36.794 62.317 36.3332 64.4267 36.3447" fill="#1F2225"/>
<path id="Vector_2" d="M0 25.9781C0 25.9781 2.88953 37.7996 3.34894 39.7146C3.88992 41.9529 4.85884 42.7802 7.65537 42.2292L9.4615 34.8987C9.91805 33.0825 10.2286 31.7802 10.5234 29.9296H10.5735C10.7782 31.7987 11.073 33.0825 11.4465 34.9044C11.4465 34.9044 12.1836 38.2348 12.5657 39.9794C12.9378 41.724 13.9854 42.8246 16.729 42.2292L21.0283 25.9781H17.5576L16.0821 33.0081C15.6914 35.0447 15.3365 36.649 15.0603 38.5153H15.0101C14.7612 36.669 14.4448 35.1305 14.0384 33.1354L12.5099 25.9781H8.88904L7.25748 32.9522C6.79233 35.0819 6.35728 36.7893 6.0839 38.5968H6.03669C5.75476 36.9009 5.37264 34.7412 4.96758 32.6919C4.96758 32.6919 3.99868 27.6985 3.65665 25.9781" fill="#1F2225"/>
<path id="Vector_3" d="M30.7006 34.9478C30.7006 32.1827 29.5141 29.7397 25.5111 29.7397C23.463 29.7397 21.8287 30.3251 20.9442 30.8374L21.5924 33.0557C22.404 32.5448 23.7021 32.124 24.9328 32.124C26.9594 32.1212 27.2914 33.2676 27.2914 34.0046V34.1821C22.8677 34.1749 20.0684 35.7035 20.0684 38.8163C20.0684 40.7183 21.4938 42.5016 23.9639 42.5016C25.4924 42.5016 26.7605 41.8904 27.5247 40.9258H27.602C27.602 40.9258 28.1087 43.034 30.8923 42.2281C30.7492 41.3451 30.7006 40.4149 30.7006 39.2843V34.9478ZM27.3974 37.8674C27.3974 38.0907 27.3788 38.3226 27.3158 38.5215C27.0581 39.3731 26.1794 40.0857 25.0832 40.0857C24.1658 40.0857 23.4387 39.5633 23.4387 38.4684C23.4387 36.794 25.2877 36.3332 27.3974 36.3447" fill="#1F2225"/>
<path id="Vector_4" d="M32.5 25.978V42.2233H35.8032V38.7785V25.978H32.5Z" fill="#1F2225"/>
<path id="Vector_5" d="M77.8652 25.9781V37.9643C77.8652 39.6187 78.1758 40.7723 78.844 41.4792C79.4309 42.0989 80.3911 42.5025 81.5347 42.5025C82.5165 42.5025 83.4767 42.3136 83.9304 42.149L83.8904 39.5686C83.5512 39.6473 83.1634 39.7146 82.6309 39.7146C81.5032 39.7146 81.1311 39.0004 81.1311 37.5148V32.9265H84.0078V29.8222H81.1311V25.9781" fill="#1F2225"/>
<path id="Vector_6" d="M69.3281 30.0195V42.2261H72.7429V35.9746C72.7429 35.6384 72.7642 35.3477 72.8173 35.0787C73.072 33.7606 74.0724 32.9262 75.5136 32.9262C75.9158 32.9262 76.1892 32.9706 76.4926 33.0178V29.8177C76.2378 29.772 76.0646 29.7476 75.7512 29.7476C74.4731 29.7476 73.0248 30.559 72.4137 32.3265H72.3293V30.0195" fill="#1F2225"/>
<path id="Vector_7" d="M37.7227 30.0195V42.2261H41.0501V35.0616C41.0501 34.7252 41.0873 34.3818 41.2061 34.0711C41.4766 33.3455 42.1478 32.5054 43.2255 32.5054C44.565 32.5054 45.1977 33.6361 45.1977 35.2676V42.2261H48.5166V34.9757C48.5166 34.6593 48.561 34.2715 48.6539 33.991C48.9202 33.1681 49.6472 32.5054 50.6519 32.5054C52.0058 32.5054 52.6613 33.6118 52.6613 35.5353V42.2261H55.9772V35.0287C55.9772 31.2475 54.0538 29.7476 51.8698 29.7476C50.9095 29.7476 50.1453 29.9837 49.4583 30.4074C48.8772 30.7636 48.3678 31.266 47.9111 31.9229H47.8611C47.3358 30.6091 46.1022 29.7476 44.4906 29.7476C42.424 29.7476 41.4852 30.7908 40.9328 31.6725H40.8826V30.0195" fill="#1F2225"/>
<path id="Vector_8" d="M101.88 29.4742C102.532 29.4742 103.082 29.1335 103.153 28.6956L103.8 21.3679C103.8 20.6423 102.946 20.0483 101.88 20.0483C100.808 20.0483 99.959 20.6423 99.959 21.3679L100.611 28.6956C100.68 29.1335 101.227 29.4742 101.88 29.4742Z" fill="#1F2225"/>
<path id="Vector_9" d="M97.9091 31.7674C98.2325 31.1949 98.2139 30.5595 97.8648 30.276L91.8251 26.0527C91.1968 25.6864 90.2566 26.1229 89.7185 27.0474C89.1817 27.9705 89.2905 29.0066 89.906 29.3658L96.5923 32.4658C97.0203 32.6261 97.5799 32.3283 97.9091 31.7617" fill="#1F2225"/>
<path id="Vector_10" d="M105.847 31.7596C106.189 32.3263 106.749 32.6241 107.165 32.4723L113.852 29.3638C114.473 28.9974 114.566 27.9712 114.041 27.0482C113.504 26.1235 112.558 25.69 111.931 26.0491L105.89 30.2683C105.555 30.556 105.531 31.1943 105.854 31.7653" fill="#1F2225"/>
<path id="Vector_11" d="M101.88 38.6265C102.532 38.6265 103.082 38.9671 103.153 39.4051L103.8 46.7326C103.8 47.4583 102.946 48.0464 101.88 48.0464C100.808 48.0464 99.959 47.4583 99.959 46.7326L100.611 39.4051C100.68 38.9671 101.227 38.6265 101.88 38.6265Z" fill="#1F2225"/>
<path id="Vector_12" d="M105.847 36.343C106.189 35.7747 106.749 35.4713 107.165 35.6359L113.852 38.7387C114.473 39.0979 114.566 40.1327 114.041 41.0571C113.504 41.9746 112.558 42.4111 111.931 42.0519L105.89 37.827C105.555 37.5422 105.531 36.9068 105.854 36.343" fill="#1F2225"/>
<path id="Vector_13" d="M97.9091 36.3368C98.2325 36.9079 98.2139 37.5419 97.8648 37.8281L91.8251 42.0458C91.1968 42.4122 90.2566 41.9742 89.7185 41.0569C89.1817 40.1337 89.2905 39.0975 89.906 38.7383L96.5923 35.6355C97.0203 35.4723 97.5799 35.7729 97.9091 36.3368Z" fill="#1F2225"/>
<path id="Vector_14" d="M115.808 41.4046H115.891C116.004 41.4046 116.05 41.4403 116.063 41.5306C116.087 41.6307 116.1 41.6981 116.124 41.7266H116.339C116.32 41.7051 116.296 41.6507 116.283 41.5249C116.259 41.4161 116.203 41.3545 116.124 41.333V41.313C116.233 41.2887 116.296 41.2157 116.296 41.1255C116.296 41.044 116.259 40.9853 116.221 40.9481C116.15 40.9137 116.081 40.8865 115.93 40.8865C115.795 40.8865 115.696 40.898 115.618 40.9166V41.7266H115.808V41.4046ZM115.814 41.0354L115.911 41.0225C116.025 41.0225 116.087 41.0754 116.087 41.1498C116.087 41.2329 116.004 41.2715 115.898 41.2715H115.814V41.0354ZM115.935 40.4858C115.466 40.4858 115.094 40.8522 115.094 41.3015C115.094 41.7625 115.466 42.1288 115.935 42.1288C116.41 42.1288 116.771 41.7625 116.771 41.3015C116.771 40.8522 116.41 40.4858 115.935 40.4858ZM115.935 40.6504C116.296 40.6504 116.564 40.9424 116.564 41.3015C116.564 41.6637 116.296 41.9642 115.935 41.9584C115.575 41.9584 115.301 41.6637 115.301 41.3015C115.301 40.9424 115.575 40.6504 115.93 40.6504" fill="#1F2225"/>
</g>
</g>
</g>
</g>
</g>
</g>
<path d="M-20542 -1124H6402V-1126H-20542V-1124ZM6581 -945V4997H6583V-945H6581ZM6402 5176H-20542V5178H6402V5176ZM-20721 4997V-945H-20723V4997H-20721ZM-20542 5176C-20640.9 5176 -20721 5095.86 -20721 4997H-20723C-20723 5096.96 -20642 5178 -20542 5178V5176ZM6581 4997C6581 5095.86 6500.86 5176 6402 5176V5178C6501.96 5178 6583 5096.96 6583 4997H6581ZM6402 -1124C6500.86 -1124 6581 -1043.86 6581 -945H6583C6583 -1044.96 6501.96 -1126 6402 -1126V-1124ZM-20542 -1126C-20642 -1126 -20723 -1044.96 -20723 -945H-20721C-20721 -1043.86 -20640.9 -1124 -20542 -1124V-1126Z" fill="black" fill-opacity="0.1"/>
</g>
<defs>
<clipPath id="clip0_626_7414">
<rect width="1440" height="2617" fill="white" transform="translate(-263 -800)"/>
</clipPath>
</defs>
</svg>
