<svg width="26" height="26" viewBox="0 0 26 26" fill="none" xmlns="http://www.w3.org/2000/svg">
<path fill-rule="evenodd" clip-rule="evenodd" d="M22.9727 0.836914H2.97266C1.59194 0.836914 0.472656 1.9562 0.472656 3.33691V23.3369C0.472656 24.7176 1.59194 25.8369 2.97266 25.8369H12.9727V16.4251H9.22266V12.8957H12.9727V11.0004C12.9727 7.41221 14.8347 5.83691 17.8789 5.83691C19.3081 5.83691 20.0771 5.93869 20.4507 5.98813L20.4727 5.99103V9.36633H18.3964C17.1043 9.36633 16.7227 10.0346 16.7227 11.3875V12.8957H20.4402L19.9263 16.4251H16.7227V25.8369H22.9727C24.3534 25.8369 25.4727 24.7176 25.4727 23.3369V3.33691C25.4727 1.9562 24.3534 0.836914 22.9727 0.836914Z" fill="#222A54"/>
</svg>
