<svg width="16" height="17" viewBox="0 0 16 17" fill="none" xmlns="http://www.w3.org/2000/svg">
<g clip-path="url(#clip0_634_3648)">
<path d="M8 14.7962L11.3 11.4962C11.9526 10.8436 12.397 10.0121 12.577 9.10682C12.7571 8.20159 12.6646 7.2633 12.3114 6.41061C11.9582 5.55791 11.36 4.82911 10.5926 4.31635C9.82519 3.80359 8.92296 3.52991 8 3.52991C7.07704 3.52991 6.17481 3.80359 5.40739 4.31635C4.63997 4.82911 4.04183 5.55791 3.68861 6.41061C3.33539 7.2633 3.24294 8.20159 3.42297 9.10682C3.603 10.0121 4.04741 10.8436 4.7 11.4962L8 14.7962ZM8 16.6816L3.75734 12.4389C2.91823 11.5998 2.34679 10.5307 2.11529 9.3668C1.88378 8.20292 2.0026 6.99652 2.45673 5.90017C2.91086 4.80382 3.6799 3.86675 4.66659 3.20747C5.65328 2.54818 6.81332 2.19629 8 2.19629C9.18669 2.19629 10.3467 2.54818 11.3334 3.20747C12.3201 3.86675 13.0891 4.80382 13.5433 5.90017C13.9974 6.99652 14.1162 8.20292 13.8847 9.3668C13.6532 10.5307 13.0818 11.5998 12.2427 12.4389L8 16.6816ZM8 9.52957C8.35362 9.52957 8.69276 9.38909 8.94281 9.13905C9.19286 8.889 9.33334 8.54986 9.33334 8.19624C9.33334 7.84262 9.19286 7.50348 8.94281 7.25343C8.69276 7.00338 8.35362 6.8629 8 6.8629C7.64638 6.8629 7.30724 7.00338 7.05719 7.25343C6.80715 7.50348 6.66667 7.84262 6.66667 8.19624C6.66667 8.54986 6.80715 8.889 7.05719 9.13905C7.30724 9.38909 7.64638 9.52957 8 9.52957ZM8 10.8629C7.29276 10.8629 6.61448 10.582 6.11438 10.0819C5.61429 9.58176 5.33334 8.90348 5.33334 8.19624C5.33334 7.48899 5.61429 6.81072 6.11438 6.31062C6.61448 5.81052 7.29276 5.52957 8 5.52957C8.70725 5.52957 9.38552 5.81052 9.88562 6.31062C10.3857 6.81072 10.6667 7.48899 10.6667 8.19624C10.6667 8.90348 10.3857 9.58176 9.88562 10.0819C9.38552 10.582 8.70725 10.8629 8 10.8629Z" fill="#494D50"/>
</g>
<defs>
<clipPath id="clip0_634_3648">
<rect width="16" height="16" fill="white" transform="translate(0 0.864258)"/>
</clipPath>
</defs>
</svg>
