<svg width="101" height="14" viewBox="0 0 101 14" fill="none" xmlns="http://www.w3.org/2000/svg">
<path d="M5.88816 5.14226H4.62816C4.59083 4.42359 4.11016 4.06426 3.18616 4.06426C2.71016 4.06426 2.33216 4.15759 2.05216 4.34426C1.7815 4.52159 1.64616 4.76426 1.64616 5.07226C1.64616 5.53892 2.0895 5.87492 2.97616 6.08026L4.08216 6.33226C4.80083 6.50026 5.31883 6.73826 5.63616 7.04626C5.9535 7.35426 6.11216 7.77426 6.11216 8.30626C6.11216 8.98759 5.84616 9.52892 5.31416 9.93026C4.78216 10.3223 4.0635 10.5183 3.15816 10.5183C2.16883 10.5183 1.4175 10.2849 0.904164 9.81826C0.474831 9.43559 0.246164 8.92692 0.218164 8.29226H1.52016C1.59483 8.61892 1.6975 8.85692 1.82816 9.00626C2.08016 9.30492 2.5515 9.45426 3.24216 9.45426C3.7555 9.45426 4.1615 9.36092 4.46016 9.17426C4.76816 8.97826 4.92216 8.72159 4.92216 8.40426C4.92216 7.92826 4.5535 7.60159 3.81616 7.42426L2.73816 7.17226C1.91683 6.97626 1.34283 6.74292 1.01616 6.47226C0.642831 6.16426 0.456164 5.72092 0.456164 5.14226C0.456164 4.48892 0.703498 3.97092 1.19816 3.58826C1.70216 3.20559 2.37416 3.01426 3.21416 3.01426C4.0915 3.01426 4.77283 3.23359 5.25816 3.67226C5.67816 4.05492 5.88816 4.54492 5.88816 5.14226ZM10.1471 3.16826V4.09226H8.67711V8.88026C8.67711 9.04826 8.73311 9.19292 8.84511 9.31426C8.96644 9.42626 9.12044 9.48226 9.30711 9.48226C9.48444 9.48226 9.75511 9.44026 10.1191 9.35626L10.2451 10.3643C9.66644 10.4669 9.22778 10.5183 8.92911 10.5183C8.00511 10.5183 7.54311 10.1403 7.54311 9.38426V4.09226H6.56311V3.16826H7.54311V1.69826L8.67711 1.18026V3.16826H10.1471ZM17.2434 7.10226H11.9374C11.9467 7.71826 12.0774 8.20826 12.3294 8.57226C12.7307 9.16026 13.3094 9.45426 14.0654 9.45426C14.9987 9.45426 15.6287 9.01092 15.9554 8.12426H17.1034C16.954 8.88026 16.6087 9.46826 16.0674 9.88826C15.526 10.3083 14.8447 10.5183 14.0234 10.5183C12.9314 10.5183 12.096 10.1449 11.5174 9.39826C11.004 8.74492 10.7474 7.88159 10.7474 6.80826C10.7474 5.56692 11.0834 4.60092 11.7554 3.91026C12.3434 3.31292 13.104 3.01426 14.0374 3.01426C14.7187 3.01426 15.316 3.17759 15.8294 3.50426C16.352 3.83092 16.7254 4.27892 16.9494 4.84826C17.1454 5.33359 17.2434 6.07092 17.2434 7.06026V7.10226ZM16.0114 6.16426C16.0114 5.53892 15.8247 5.03492 15.4514 4.65226C15.0874 4.26026 14.616 4.06426 14.0374 4.06426C13.4494 4.06426 12.9687 4.25559 12.5954 4.63826C12.2314 5.01159 12.026 5.52026 11.9794 6.16426H16.0114ZM18.2639 13.3603V3.16826H19.3279V4.27426C19.8599 3.43426 20.6253 3.01426 21.6239 3.01426C22.6413 3.01426 23.4253 3.40626 23.9759 4.19026C24.4613 4.87159 24.7039 5.76759 24.7039 6.87826C24.7039 8.06359 24.3866 8.98759 23.7519 9.65026C23.2013 10.2289 22.4873 10.5183 21.6099 10.5183C20.7233 10.5183 19.9906 10.1963 19.4119 9.55226V13.3603H18.2639ZM21.4279 4.07826C20.8213 4.07826 20.3313 4.32559 19.9579 4.82026C19.5939 5.31492 19.4119 5.97759 19.4119 6.80826C19.4119 7.66692 19.6219 8.33892 20.0419 8.82426C20.3966 9.23492 20.8586 9.44026 21.4279 9.44026C22.0626 9.44026 22.5666 9.20226 22.9399 8.72626C23.3226 8.24092 23.5139 7.60159 23.5139 6.80826C23.5139 5.93092 23.2993 5.24026 22.8699 4.73626C22.4873 4.29759 22.0066 4.07826 21.4279 4.07826ZM30.9325 3.16826V4.19026L26.6485 9.35626H31.1145V10.3643H25.2625V9.32826L29.5605 4.17626H25.5565V3.16826H30.9325ZM38.4395 7.10226H33.1335C33.1428 7.71826 33.2735 8.20826 33.5255 8.57226C33.9268 9.16026 34.5055 9.45426 35.2615 9.45426C36.1948 9.45426 36.8248 9.01092 37.1515 8.12426H38.2995C38.1501 8.88026 37.8048 9.46826 37.2635 9.88826C36.7221 10.3083 36.0408 10.5183 35.2195 10.5183C34.1275 10.5183 33.2921 10.1449 32.7135 9.39826C32.2001 8.74492 31.9435 7.88159 31.9435 6.80826C31.9435 5.56692 32.2795 4.60092 32.9515 3.91026C33.5395 3.31292 34.3001 3.01426 35.2335 3.01426C35.9148 3.01426 36.5121 3.17759 37.0255 3.50426C37.5481 3.83092 37.9215 4.27892 38.1455 4.84826C38.3415 5.33359 38.4395 6.07092 38.4395 7.06026V7.10226ZM37.2075 6.16426C37.2075 5.53892 37.0208 5.03492 36.6475 4.65226C36.2835 4.26026 35.8121 4.06426 35.2335 4.06426C34.6455 4.06426 34.1648 4.25559 33.7915 4.63826C33.4275 5.01159 33.2221 5.52026 33.1755 6.16426H37.2075ZM39.67 3.16826H40.734V4.48426C41.154 3.49492 41.8167 3.00026 42.722 3.00026C42.834 3.00026 42.9694 3.01426 43.128 3.04226V4.21826C42.3814 4.22759 41.868 4.33492 41.588 4.54026C41.0747 4.91359 40.818 5.60892 40.818 6.62626V10.3643H39.67V3.16826ZM46.7561 3.01426C47.8388 3.01426 48.6648 3.39226 49.2341 4.14826C49.7381 4.80159 49.9901 5.68826 49.9901 6.80826C49.9901 8.05892 49.6635 9.01092 49.0101 9.66426C48.4501 10.2336 47.6941 10.5183 46.7421 10.5183C45.6408 10.5183 44.8008 10.1496 44.2221 9.41226C43.7181 8.76826 43.4661 7.90026 43.4661 6.80826C43.4661 5.53892 43.7975 4.56359 44.4601 3.88226C45.0295 3.30359 45.7948 3.01426 46.7561 3.01426ZM46.7561 4.06426C46.1028 4.06426 45.5895 4.31159 45.2161 4.80626C44.8428 5.29159 44.6561 5.95892 44.6561 6.80826C44.6561 7.69492 44.8661 8.37159 45.2861 8.83826C45.6501 9.24892 46.1355 9.45426 46.7421 9.45426C47.3861 9.45426 47.8855 9.22092 48.2401 8.75426C48.6041 8.28759 48.7861 7.63892 48.7861 6.80826C48.7861 5.89359 48.5808 5.19359 48.1701 4.70826C47.8155 4.27892 47.3441 4.06426 46.7561 4.06426ZM51.6967 9.06226C51.8927 9.06226 52.056 9.12759 52.1867 9.25826C52.3174 9.38892 52.3827 9.55226 52.3827 9.74826C52.3827 9.93492 52.3174 10.0983 52.1867 10.2383C52.056 10.3689 51.8927 10.4343 51.6967 10.4343C51.51 10.4343 51.3467 10.3689 51.2067 10.2383C51.076 10.0983 51.0107 9.93492 51.0107 9.74826C51.0107 9.55226 51.076 9.38892 51.2067 9.25826C51.3467 9.12759 51.51 9.06226 51.6967 9.06226ZM58.8398 5.14226H57.5798C57.5424 4.42359 57.0618 4.06426 56.1378 4.06426C55.6618 4.06426 55.2838 4.15759 55.0038 4.34426C54.7331 4.52159 54.5978 4.76426 54.5978 5.07226C54.5978 5.53892 55.0411 5.87492 55.9278 6.08026L57.0338 6.33226C57.7524 6.50026 58.2704 6.73826 58.5878 7.04626C58.9051 7.35426 59.0638 7.77426 59.0638 8.30626C59.0638 8.98759 58.7978 9.52892 58.2658 9.93026C57.7338 10.3223 57.0151 10.5183 56.1098 10.5183C55.1204 10.5183 54.3691 10.2849 53.8558 9.81826C53.4264 9.43559 53.1978 8.92692 53.1698 8.29226H54.4718C54.5464 8.61892 54.6491 8.85692 54.7798 9.00626C55.0318 9.30492 55.5031 9.45426 56.1938 9.45426C56.7071 9.45426 57.1131 9.36092 57.4118 9.17426C57.7198 8.97826 57.8738 8.72159 57.8738 8.40426C57.8738 7.92826 57.5051 7.60159 56.7678 7.42426L55.6898 7.17226C54.8684 6.97626 54.2944 6.74292 53.9678 6.47226C53.5944 6.16426 53.4078 5.72092 53.4078 5.14226C53.4078 4.48892 53.6551 3.97092 54.1498 3.58826C54.6538 3.20559 55.3258 3.01426 56.1658 3.01426C57.0431 3.01426 57.7244 3.23359 58.2098 3.67226C58.6298 4.05492 58.8398 4.54492 58.8398 5.14226ZM66.6687 9.39826V10.3223C66.3514 10.4343 66.1041 10.4903 65.9267 10.4903C65.1801 10.4903 64.7741 10.1496 64.7087 9.46826C64.1954 10.1683 63.3787 10.5183 62.2587 10.5183C61.4841 10.5183 60.8821 10.3036 60.4527 9.87426C60.0794 9.50092 59.8927 9.02026 59.8927 8.43226C59.8927 7.76026 60.1307 7.24226 60.6067 6.87826C60.8774 6.67292 61.4421 6.47226 62.3007 6.27626L64.6527 5.74426L64.6667 5.14226C64.6667 4.42359 64.1254 4.06426 63.0427 4.06426C62.0067 4.06426 61.4514 4.48426 61.3767 5.32426H60.2147C60.2427 4.68959 60.4014 4.20426 60.6907 3.86826C61.1854 3.29892 61.9881 3.01426 63.0987 3.01426C64.9001 3.01426 65.8007 3.66759 65.8007 4.97426V8.99226C65.8007 9.34692 65.9547 9.52426 66.2627 9.52426C66.3001 9.52426 66.3981 9.49626 66.5567 9.44026C66.6127 9.42159 66.6501 9.40759 66.6687 9.39826ZM64.6667 6.68226L62.8187 7.15826C62.1561 7.32626 61.6987 7.49892 61.4467 7.67626C61.2041 7.85359 61.0827 8.10092 61.0827 8.41826C61.0827 9.15559 61.5587 9.52426 62.5107 9.52426C63.1827 9.52426 63.7521 9.30492 64.2187 8.86626C64.5174 8.59559 64.6667 8.28759 64.6667 7.94226V6.68226ZM75.3976 11.0363C74.987 11.1109 74.5856 11.1483 74.1936 11.1483C72.6256 11.1483 71.4216 10.5976 70.5816 9.49626C69.8816 8.59092 69.5316 7.43826 69.5316 6.03826C69.5316 4.38626 70.1103 3.04692 71.2676 2.02026C72.1823 1.20826 73.2696 0.802257 74.5296 0.802257C76.1163 0.802257 77.3716 1.28759 78.2956 2.25826C79.117 3.12626 79.5276 4.24626 79.5276 5.61826C79.5276 6.56092 79.3223 7.34492 78.9116 7.97026C78.4823 8.62359 77.8896 8.95026 77.1336 8.95026C76.611 8.95026 76.2143 8.79159 75.9436 8.47426C75.5423 8.78226 75.0616 8.93626 74.5016 8.93626C73.6523 8.93626 73.0036 8.65159 72.5556 8.08226C72.1823 7.60626 71.9956 6.99026 71.9956 6.23426C71.9956 5.29159 72.271 4.55892 72.8216 4.03626C73.2696 3.62559 73.8436 3.40626 74.5436 3.37826C74.973 3.37826 75.3883 3.49026 75.7896 3.71426L76.4336 3.19626H76.7836V7.63426C76.7836 7.83959 76.961 7.94226 77.3156 7.94226C77.6796 7.94226 77.9736 7.74626 78.1976 7.35426C78.4216 6.96226 78.5336 6.44426 78.5336 5.80026C78.5336 4.47492 78.1276 3.44826 77.3156 2.72026C76.6156 2.08559 75.687 1.76826 74.5296 1.76826C73.4563 1.76826 72.537 2.14626 71.7716 2.90226C70.941 3.72359 70.5256 4.75959 70.5256 6.01026C70.5256 7.42892 70.9363 8.52092 71.7576 9.28626C72.4856 9.96759 73.461 10.3083 74.6836 10.3083C75.029 10.3083 75.3883 10.2803 75.7616 10.2243V10.5883L75.3976 11.0363ZM75.7756 4.45626C75.421 4.32559 75.0896 4.26026 74.7816 4.26026C74.2496 4.26026 73.8203 4.43759 73.4936 4.79226C73.167 5.14692 73.0036 5.61359 73.0036 6.19226C73.0036 6.78026 73.153 7.24226 73.4516 7.57826C73.7503 7.91426 74.161 8.08226 74.6836 8.08226C75.1036 8.08226 75.4676 7.96092 75.7756 7.71826V4.45626ZM81.8479 3.16826V10.3643H80.7139V3.16826H81.8479ZM81.3019 0.354257C81.4979 0.354257 81.6612 0.424257 81.7919 0.564257C81.9319 0.694924 82.0019 0.853591 82.0019 1.04026C82.0019 1.23626 81.9319 1.40426 81.7919 1.54426C81.6612 1.67492 81.4979 1.74026 81.3019 1.74026C81.1152 1.74026 80.9519 1.67492 80.8119 1.54426C80.6812 1.40426 80.6159 1.23626 80.6159 1.04026C80.6159 0.853591 80.6812 0.694924 80.8119 0.564257C80.9519 0.424257 81.1152 0.354257 81.3019 0.354257ZM83.4967 3.16826H84.5607V4.38626C85.1394 3.47159 85.9327 3.01426 86.9407 3.01426C87.6407 3.01426 88.1961 3.19159 88.6067 3.54626C89.0174 3.89159 89.2227 4.35826 89.2227 4.94626V10.3643H88.0887V5.40826C88.0887 4.97892 87.9534 4.63826 87.6827 4.38626C87.4214 4.13426 87.0621 4.00826 86.6047 4.00826C86.0074 4.00826 85.5314 4.22759 85.1767 4.66626C84.8221 5.10492 84.6447 5.68826 84.6447 6.41626V10.3643H83.4967V3.16826ZM93.3933 3.16826V4.09226H92.2033V10.3643H91.0693V4.09226H90.1033V3.16826H91.0693V1.93626C91.0693 1.42292 91.214 1.02159 91.5033 0.732257C91.802 0.442924 92.2173 0.298257 92.7493 0.298257C92.9546 0.298257 93.1693 0.321591 93.3933 0.368257V1.32026H93.2673C93.1646 1.31092 93.076 1.30626 93.0013 1.30626C92.4693 1.30626 92.2033 1.54892 92.2033 2.03426V3.16826H93.3933ZM97.1374 3.01426C98.2201 3.01426 99.0461 3.39226 99.6154 4.14826C100.119 4.80159 100.371 5.68826 100.371 6.80826C100.371 8.05892 100.045 9.01092 99.3914 9.66426C98.8314 10.2336 98.0754 10.5183 97.1234 10.5183C96.0221 10.5183 95.1821 10.1496 94.6034 9.41226C94.0994 8.76826 93.8474 7.90026 93.8474 6.80826C93.8474 5.53892 94.1788 4.56359 94.8414 3.88226C95.4108 3.30359 96.1761 3.01426 97.1374 3.01426ZM97.1374 4.06426C96.4841 4.06426 95.9708 4.31159 95.5974 4.80626C95.2241 5.29159 95.0374 5.95892 95.0374 6.80826C95.0374 7.69492 95.2474 8.37159 95.6674 8.83826C96.0314 9.24892 96.5168 9.45426 97.1234 9.45426C97.7674 9.45426 98.2668 9.22092 98.6214 8.75426C98.9854 8.28759 99.1674 7.63892 99.1674 6.80826C99.1674 5.89359 98.9621 5.19359 98.5514 4.70826C98.1968 4.27892 97.7254 4.06426 97.1374 4.06426Z" fill="#494D50"/>
</svg>
