<svg width="26" height="26" viewBox="0 0 26 26" fill="none" xmlns="http://www.w3.org/2000/svg">
<path fill-rule="evenodd" clip-rule="evenodd" d="M22.9727 0.836914H2.97266C1.59194 0.836914 0.472656 1.9562 0.472656 3.33691V23.3369C0.472656 24.7176 1.59194 25.8369 2.97266 25.8369H22.9727C24.3534 25.8369 25.4727 24.7176 25.4727 23.3369V3.33691C25.4727 1.9562 24.3534 0.836914 22.9727 0.836914ZM19.6604 8.63612C20.3867 8.55217 21.0785 8.36605 21.7227 8.08948C21.2414 8.78514 20.6323 9.39621 19.9303 9.88624C19.9371 10.0353 19.9404 10.1849 19.9404 10.3353C19.9404 14.9225 16.3302 20.2119 9.72619 20.2119C7.69829 20.2119 5.81173 19.6373 4.22266 18.6527C4.50399 18.6852 4.79004 18.7015 5.07945 18.7015C6.76208 18.7015 8.31009 18.1464 9.53841 17.2151C7.96751 17.1872 6.6416 16.183 6.1846 14.8041C6.40334 14.8438 6.62881 14.8659 6.85967 14.8659C7.18745 14.8659 7.50513 14.8236 7.80598 14.7442C6.16306 14.426 4.92599 13.0229 4.92599 11.3407V11.2971C5.40992 11.5567 5.96384 11.7129 6.55209 11.7312C5.58895 11.109 4.95561 10.0463 4.95561 8.84241C4.95561 8.20531 5.13262 7.60921 5.44088 7.09641C7.21235 9.19708 9.85744 10.5793 12.8411 10.7238C12.7805 10.4706 12.7482 10.2051 12.7482 9.93309C12.7482 8.01659 14.3554 6.46191 16.3382 6.46191C17.3707 6.46191 18.3036 6.88361 18.9584 7.55845C19.7769 7.40227 20.5455 7.11333 21.2387 6.71571C20.9709 7.52656 20.4021 8.20661 19.6604 8.63612Z" fill="#222A54"/>
</svg>
