<svg width="20" height="20" viewBox="0 0 20 20" fill="#ff6600"   xmlns="http://www.w3.org/2000/svg">
<g id="Group 10294">
<path id="Path 4" d="M10 18C5.5816 18 2 14.4184 2 10C2 5.5816 5.5816 2 10 2C14.4184 2 18 5.5816 18 10C18 14.4184 14.4184 18 10 18ZM8.168 16.1336C7.37873 14.4595 6.9215 12.6482 6.8216 10.8L3.6496 10.8C3.96765 13.3153 5.73916 15.4064 8.168 16.1336ZM8.424 10.8C8.5448 12.7512 9.1024 14.584 10 16.2016C10.9219 14.5412 11.4604 12.6956 11.576 10.8H8.424ZM16.3504 10.8H13.1784C13.0785 12.6482 12.6213 14.4595 11.832 16.1336C14.2608 15.4064 16.0323 13.3153 16.3504 10.8ZM3.6496 9.2H6.8216C6.9215 7.35182 7.37873 5.54054 8.168 3.8664C5.73916 4.59355 3.96765 6.68467 3.6496 9.2ZM8.4248 9.2H11.5752C11.4598 7.30448 10.9216 5.45883 10 3.7984C9.07815 5.45876 8.54045 7.30442 8.4248 9.2ZM11.832 3.8664C12.6213 5.54055 13.0785 7.35183 13.1784 9.2L16.3504 9.2C16.0323 6.68468 14.2608 4.59355 11.832 3.8664Z" fill="#ff6600" />
</g>
</svg>
