<svg width="206" height="34" viewBox="0 0 206 34" fill="none" xmlns="http://www.w3.org/2000/svg">
<path d="M72.2886 19.6911C72.2886 24.1013 68.4507 25.9846 64.3077 25.9846C60.4698 25.9846 57.5568 24.5256 56.0598 21.4218L61.0467 18.585C61.5473 20.0439 62.62 20.8497 64.3077 20.8497C65.6903 20.8497 66.3768 20.4253 66.3768 19.6625C66.3768 17.5504 56.9418 18.666 56.9418 12.0293C56.9418 7.84796 60.4698 5.73584 64.4603 5.73584C67.5687 5.73584 70.3292 7.11849 71.9406 9.84089L67.03 12.487C66.4913 11.4905 65.7237 10.7992 64.4603 10.7992C63.4639 10.7992 62.8488 11.1806 62.8488 11.872C62.8488 14.0604 72.2839 12.6014 72.2839 19.6959L72.2886 19.6911Z" fill="white"/>
<path d="M81.8763 11.7847V18.574C81.8763 20.2237 83.297 20.3762 85.8286 20.2237V25.4396C78.3101 26.2072 76.1218 23.9425 76.1218 18.574V11.7847H73.0515V6.25889H76.1218V2.61632L81.8763 0.890381V6.25889H85.8286V11.7847H81.8763Z" fill="white"/>
<path d="M98.4482 20.8399C100.022 20.8399 101.361 20.2249 102.129 19.381L106.729 22.0271C104.851 24.635 102.01 25.9796 98.3672 25.9796C91.807 25.9796 87.7402 21.5694 87.7402 15.8528C87.7402 10.1363 91.8833 5.72607 97.9428 5.72607C103.545 5.72607 107.688 10.06 107.688 15.8528C107.688 16.6586 107.611 17.4262 107.459 18.1556H93.8427C94.5722 20.1486 96.3362 20.8399 98.4482 20.8399ZM101.976 13.8599C101.361 11.6333 99.6353 10.8276 97.9095 10.8276C95.7212 10.8276 94.267 11.9003 93.7283 13.8599H101.976Z" fill="white"/>
<path d="M131.588 15.8517C131.588 21.5683 127.445 25.9785 122.42 25.9785C119.85 25.9785 117.972 25.0964 116.703 23.6375V33.111H110.949V6.25897H116.703V8.06119C117.967 6.60225 119.85 5.72021 122.42 5.72021C127.445 5.72021 131.588 10.1304 131.588 15.847V15.8517ZM125.833 15.8517C125.833 12.9768 123.917 11.1698 121.271 11.1698C118.625 11.1698 116.708 12.972 116.708 15.8517C116.708 18.7315 118.625 20.5337 121.271 20.5337C123.917 20.5337 125.833 18.7315 125.833 15.8517Z" fill="white"/>
<path d="M148.47 19.7375V25.106H133.128V21.268L140.379 11.2938H133.514V5.92529H148.088V9.76334L140.837 19.7375H148.47Z" fill="white"/>
<path d="M160.513 20.8379C162.086 20.8379 163.426 20.2229 164.193 19.379L168.794 22.0251C166.916 24.6331 164.074 25.9776 160.432 25.9776C153.871 25.9776 149.805 21.5674 149.805 15.8509C149.805 10.1343 153.948 5.72412 160.007 5.72412C165.609 5.72412 169.752 10.058 169.752 15.8509C169.752 16.6566 169.676 17.4242 169.523 18.1537H155.907C156.637 20.1466 158.401 20.8379 160.513 20.8379ZM164.041 13.8579C163.426 11.6314 161.7 10.8256 159.974 10.8256C157.786 10.8256 156.331 11.8984 155.793 13.8579H164.041Z" fill="white"/>
<path d="M184.522 5.87732V12.3996C182.143 12.0182 178.768 12.9765 178.768 16.7717V25.4395H173.013V6.25875H178.768V9.67246C179.535 7.10264 182.105 5.87256 184.522 5.87256V5.87732Z" fill="white"/>
<path d="M185.671 15.8509C185.671 10.1343 190.195 5.72412 195.835 5.72412C201.475 5.72412 206 10.1343 206 15.8509C206 21.5674 201.475 25.9776 195.835 25.9776C190.195 25.9776 185.671 21.5674 185.671 15.8509ZM200.245 15.8509C200.245 13.1285 198.329 11.3262 195.835 11.3262C193.342 11.3262 191.425 13.1285 191.425 15.8509C191.425 18.5733 193.342 20.3755 195.835 20.3755C198.329 20.3755 200.245 18.5733 200.245 15.8509Z" fill="white"/>
<path d="M40.8987 20.8713H33.7045V12.809L18.9059 9.7719V16.361H11.7117V0.956299L40.8987 6.94462V20.8713Z" fill="white"/>
<path d="M29.9001 33.049L0.717773 27.0607V13.134H7.91204V21.1963L22.7106 24.2334V17.6443H29.9001V33.049Z" fill="white"/>
</svg>
