<svg width="11" height="19" viewBox="0 0 11 19" fill="none" xmlns="http://www.w3.org/2000/svg">
<path d="M1.07003 2.44208C2.59003 1.45008 4.12603 0.954077 5.67803 0.954077C7.23003 0.954077 8.41403 1.41008 9.23003 2.32208C9.95003 3.10608 10.31 4.15408 10.31 5.46608C10.31 6.44208 10.078 7.40208 9.61403 8.34608C9.15003 9.29008 8.34203 10.4661 7.19003 11.8741C5.89403 13.4421 5.17403 14.2981 5.03003 14.4421L3.61403 15.8821H10.646V16.8421L9.44603 18.3301H0.350031V15.8821L2.12603 14.0581L3.85403 12.0901C5.18203 10.6181 6.03803 9.60208 6.42203 9.04208C7.23803 7.87408 7.64603 6.84208 7.64603 5.94608C7.64603 5.24208 7.41403 4.67408 6.95003 4.24208C6.50203 3.79408 5.91003 3.57008 5.17403 3.57008C4.31003 3.57008 3.43003 3.88208 2.53403 4.50608L1.07003 2.44208Z" fill="#1F2225"/>
</svg>
