<svg width="30" height="30" viewBox="0 0 30 30" fill="none" xmlns="http://www.w3.org/2000/svg">
    <rect width="30" height="30" fill="#D6D6D6"/>
    <g id="Home">
        <path d="M-9140 -1784C-9140 -1883.41 -9059.41 -1964 -8960 -1964H17984C18083.4 -1964 18164 -1883.41 18164 -1784V4158C18164 4257.41 18083.4 4338 17984 4338H-8960C-9059.41 4338 -9140 4257.41 -9140 4158V-1784Z" fill="#DFDFDF"/>
        <g id="Services" clip-path="url(#clip0_626_7414)">
            <rect width="1440" height="3729" transform="translate(-1307 -1639)" fill="#FEFEFE"/>
            <g id="Frame 1000005285"></g>
            <g id="Frame 1000005333">
                <g id="Frame 1000005280">
                    <g id="Frame 1000005332">
                        <g id="Frame 1000005369">
                            <g id="Frame 1000005366">
                                <g id="Frame 1000005282">
                                    <rect width="628" height="495" transform="translate(-574 -201)" fill="#F2F6F9"/>
                                    <g id="Frame 1000005331">
                                        <g id="Frame 1000005145">
                                            <g id="tick-circle">
                                                <g id="vuesax/bulk/tick-circle">
                                                    <g id="tick-circle_2">
                                                        <path id="Vector" opacity="0.16" d="M15 27.5C21.9036 27.5 27.5 21.9036 27.5 15C27.5 8.09644 21.9036 2.5 15 2.5C8.09644 2.5 2.5 8.09644 2.5 15C2.5 21.9036 8.09644 27.5 15 27.5Z" fill="#FF5100"/>
                                                        <path id="Vector_2" d="M13.2248 19.475C12.9748 19.475 12.7373 19.375 12.5623 19.2L9.0248 15.6625C8.6623 15.3 8.6623 14.7 9.0248 14.3375C9.3873 13.975 9.9873 13.975 10.3498 14.3375L13.2248 17.2125L19.6498 10.7875C20.0123 10.425 20.6123 10.425 20.9748 10.7875C21.3373 11.15 21.3373 11.75 20.9748 12.1125L13.8873 19.2C13.7123 19.375 13.4748 19.475 13.2248 19.475Z" fill="#FF5100"/>
                                                    </g>
                                                </g>
                                            </g>
                                        </g>
                                    </g>
                                </g>
                            </g>
                        </g>
                    </g>
                </g>
            </g>
        </g>
        <path d="M-8960 -1963H17984V-1965H-8960V-1963ZM18163 -1784V4158H18165V-1784H18163ZM17984 4337H-8960V4339H17984V4337ZM-9139 4158V-1784H-9141V4158H-9139ZM-8960 4337C-9058.86 4337 -9139 4256.86 -9139 4158H-9141C-9141 4257.96 -9059.96 4339 -8960 4339V4337ZM18163 4158C18163 4256.86 18082.9 4337 17984 4337V4339C18084 4339 18165 4257.96 18165 4158H18163ZM17984 -1963C18082.9 -1963 18163 -1882.86 18163 -1784H18165C18165 -1883.96 18084 -1965 17984 -1965V-1963ZM-8960 -1965C-9059.96 -1965 -9141 -1883.96 -9141 -1784H-9139C-9139 -1882.86 -9058.86 -1963 -8960 -1963V-1965Z" fill="black" fill-opacity="0.1"/>
    </g>
    <defs>
        <clipPath id="clip0_626_7414">
            <rect width="1440" height="3729" fill="white" transform="translate(-1307 -1639)"/>
        </clipPath>
    </defs>
</svg>
