<svg width="26" height="27" viewBox="0 0 26 27" fill="none" xmlns="http://www.w3.org/2000/svg">
<path d="M22.2208 22.5905H18.4407V16.667C18.4407 15.2545 18.412 13.4368 16.4708 13.4368C14.4999 13.4368 14.1989 14.9738 14.1989 16.5628V22.5905H10.4187V10.4097H14.05V12.0699H14.0989C14.6063 11.1127 15.8401 10.1023 17.6833 10.1023C21.5136 10.1023 22.222 12.6232 22.222 15.9044L22.2208 22.5905ZM6.14929 8.74294C4.93249 8.74294 3.95501 7.75802 3.95501 6.54653C3.95501 5.33611 4.93355 4.35224 6.14929 4.35224C7.36184 4.35224 8.34464 5.33611 8.34464 6.54653C8.34464 7.75802 7.36078 8.74294 6.14929 8.74294ZM8.0447 22.5905H4.25389V10.4097H8.0447V22.5905ZM24.112 0.836914H2.35636C1.31506 0.836914 0.472656 1.66017 0.472656 2.67595V24.5253C0.472656 25.542 1.31506 26.3643 2.35636 26.3643H24.1089C25.1491 26.3643 26 25.542 26 24.5253V2.67595C26 1.66017 25.1491 0.836914 24.1089 0.836914H24.112Z" fill="#222A54"/>
</svg>
